<svg width="512" height="512" viewBox="0 0 512 512" fill="none" xmlns="http://www.w3.org/2000/svg" xmlns:xlink="http://www.w3.org/1999/xlink" class=""><rect id="r9" width="512" height="512" x="0" y="0" rx="128" fill="#fff" stroke="#FFFFFF" stroke-width="0" stroke-opacity="100%" paint-order="stroke"></rect><clipPath id="clip"><use xlink:href="#r9"></use></clipPath><defs><linearGradient id="ra" gradientUnits="userSpaceOnUse" gradientTransform="rotate(0)" style="transform-origin: center center;"><stop stop-color="#fff"></stop><stop offset="1" stop-color="#F5F5F5"></stop></linearGradient><radialGradient id="rb" cx="0" cy="0" r="1" gradientUnits="userSpaceOnUse" gradientTransform="translate(256) rotate(90) scale(512)"><stop stop-color="white"></stop><stop offset="1" stop-color="white" stop-opacity="0"></stop></radialGradient></defs>

<svg xmlns="http://www.w3.org/2000/svg" xmlns:xlink="http://www.w3.org/1999/xlink" version="1.1" width="352" height="352" viewBox="0 0 1080 1080" xml:space="preserve" x="80" y="80" alignment-baseline="middle" style="color: rgb(61, 69, 78);">
<desc>Created with Fabric.js 5.2.4</desc>
<defs>
</defs>
<g transform="matrix(1 0 0 1 540 540)" id="2d9814a8-c093-491c-ac34-2bf3b1ca8f28">
<rect vector-effect="non-scaling-stroke" x="-540" y="-540" rx="0" ry="0" width="1080" height="1080" style="stroke: none; stroke-width: 1; stroke-dasharray: none; stroke-linecap: butt; stroke-dashoffset: 0px; stroke-linejoin: miter; stroke-miterlimit: 4; fill: rgb(255, 255, 255); fill-rule: nonzero; opacity: 1; visibility: hidden;"></rect>
</g>
<g transform="matrix(1 0 0 1 540 540)" id="3bd3eadd-bc87-4d33-96c0-b7caf06487ab">
</g>
<g transform="matrix(2.33 0 0 2.33 540.5 539.5)" id="78b50899-5ee9-4c9d-b19c-1ccf3e168c4c">
<path vector-effect="non-scaling-stroke" transform=" translate(-256, -256)" d="M 256 32 C 132.26 32 32 132.26 32 256 C 32 379.74 132.26 480 256 480 C 379.74 480 480 379.74 480 256 C 480 132.26 379.74 32 256 32 Z M 171 353.89 C 168.2023109918906 358.6616284597385 163.0711902156379 361.57790438383455 157.54 361.53999999999996 C 154.7702265498692 361.5640657940256 152.0485033980102 360.81611134007966 149.67999999999998 359.37999999999994 C 146.1183015529037 357.3159742080074 143.52539971072605 353.9183075226127 142.4745354060617 349.93815896869654 C 141.42367110139736 345.95801041478035 142.00140096862557 341.72321324505407 144.07999999999998 338.16999999999996 L 159.36999999999998 312.74999999999994 C 160.9422183476324 310.08023140776623 163.81169460219397 308.44379269495255 166.90999999999997 308.44999999999993 L 169.16999999999996 308.44999999999993 C 180.25999999999996 308.44999999999993 188.01999999999995 315.11999999999995 190.27999999999997 321.5799999999999 Z M 300.45 303.89 L 200.32 304 L 133.77 304 C 129.5386827916713 304.01790297261454 125.4849482146692 302.3007154764071 122.5540101561951 299.24883606671295 C 119.623072097721 296.1969566570188 118.07111121985156 292.077136958115 118.26 287.85 C 118.58 279.45000000000005 125.91000000000001 273.09000000000003 134.26 273.09000000000003 L 182.5 273.09000000000003 L 239.69 175.74000000000004 L 239.69 175.74000000000004 L 221.17 144.19000000000003 C 217 137 218.85 127.52 226 123 C 229.56184151407814 120.69643877586397 233.90934353677994 119.9458184415499 238.03739506079276 120.92167698654973 C 242.16544658480558 121.89753553154954 245.7166526095097 124.51538588895866 247.87 128.17 L 257.77 145.07999999999998 L 257.88 145.07999999999998 L 267.79 128.17 C 269.94549701737736 124.5346673116103 273.4853862634324 121.93099635923296 277.59774919451866 120.9561721339365 C 281.7101121256049 119.98134790864003 286.0420579892414 120.71902218439632 289.6 123 C 296.71000000000004 127.52 298.54 137 294.34000000000003 144.22 L 275.82000000000005 175.77 L 257.82000000000005 206.46 L 218.73000000000005 273.12 L 218.73000000000005 273.23 L 276.34000000000003 273.23 C 283.56000000000006 273.23 292.61 277.11 296.27000000000004 283.35 L 296.59000000000003 284 C 299.82000000000005 289.49 301.65000000000003 293.26 301.65000000000003 298.75 C 301.5972463454773 300.53268353493985 301.19993950381524 302.2883043651902 300.48 303.92 Z M 378.2 304 L 351.09 304 L 351.09 304.11 L 370.90999999999997 337.82 C 375.3444747275678 345.2059849748757 373.0447559262311 354.782957081796 365.73999999999995 359.35 C 363.3060473507475 360.8338924622848 360.5106248018692 361.6192401338137 357.65999999999997 361.62 C 352.1471250226874 361.6175965545492 347.03890226443224 358.72572007476435 344.2 354 L 314.90999999999997 304.14 L 296.71 273.14 L 273.23 233 C 266.31076805169994 221.3389440672275 266.06363003569373 206.89087543917236 272.58000000000004 195.00000000000003 C 277.22 186.81 280.77000000000004 184.66 280.77000000000004 184.66 L 333 273 L 377.90999999999997 273 C 386.30999999999995 273 393.52 279.46 393.90999999999997 287.75 C 394.07341189263417 292.00880193234144 392.4928579736337 296.1500422590251 389.5334839390315 299.21699557932396 C 386.57410990442935 302.28394889962277 382.4919208779731 304.01130378108144 378.23 304 Z" stroke-linecap="round" style="stroke: rgb(0, 0, 0); stroke-width: 0px; stroke-dasharray: none; stroke-linecap: butt; stroke-dashoffset: 0px; stroke-linejoin: miter; stroke-miterlimit: 4; fill: rgb(41, 133, 244); fill-rule: nonzero; opacity: 1;"></path>
</g>
<g transform="matrix(NaN NaN NaN NaN 0 0)">
<g>
</g>
</g>
</svg></svg>